<svg xmlns="http://www.w3.org/2000/svg" viewBox="-2 119 1403 363" fill="currentColor"><path d="M161,123 L194,123 L216,126 L240,133 L258,141 L273,149 L288,160 L300,171 L312,183 L321,195 L329,208 L334,216 L335,131 L473,131 L491,133 L508,137 L524,143 L537,151 L547,159 L558,170 L567,183 L575,199 L581,217 L583,226 L584,131 L666,131 L666,227 L668,226 L677,207 L687,192 L696,181 L712,165 L725,155 L738,147 L757,137 L784,128 L804,124 L815,123 L846,123 L864,125 L887,131 L907,139 L928,150 L942,160 L956,172 L964,180 L975,194 L985,210 L993,227 L998,242 L998,245 L992,246 L905,246 L895,232 L884,221 L870,212 L855,206 L839,203 L821,203 L805,206 L790,212 L778,219 L768,228 L761,235 L754,246 L748,258 L743,275 L741,286 L741,312 L744,328 L748,340 L756,356 L765,367 L775,377 L789,386 L800,391 L817,395 L825,396 L838,396 L855,393 L870,388 L883,380 L893,371 L900,363 L906,353 L908,347 L807,347 L807,272 L808,271 L1006,271 L1006,131 L1088,131 L1088,470 L1006,470 L1005,341 L999,362 L991,381 L981,399 L971,412 L961,423 L956,428 L947,437 L929,450 L911,460 L892,468 L871,474 L853,477 L839,478 L822,478 L801,476 L782,472 L761,465 L742,456 L726,446 L712,435 L698,422 L689,411 L680,399 L671,383 L668,377 L668,375 L666,375 L666,470 L497,470 L484,452 L473,436 L461,419 L445,396 L431,376 L423,365 L418,366 L417,470 L335,470 L335,383 L333,383 L331,388 L323,402 L313,415 L302,427 L292,437 L276,449 L259,459 L238,468 L217,474 L199,477 L185,478 L169,478 L149,476 L126,471 L109,465 L92,457 L76,447 L62,436 L48,423 L37,409 L30,399 L20,381 L14,367 L8,349 L4,328 L2,305 L2,294 L4,270 L9,247 L17,225 L25,209 L35,193 L44,182 L55,170 L65,161 L79,151 L96,141 L115,133 L135,127 L151,124 ZM169,204 L153,207 L140,212 L129,218 L114,231 L103,246 L96,261 L91,282 L90,292 L90,307 L93,326 L99,344 L107,358 L118,371 L130,381 L140,387 L154,392 L171,395 L184,395 L204,391 L218,385 L229,377 L239,368 L247,358 L255,344 L260,331 L263,317 L264,308 L264,291 L261,272 L255,254 L247,240 L236,228 L226,219 L212,211 L202,207 L186,204 ZM419,207 L417,209 L417,294 L418,295 L461,295 L476,291 L485,285 L493,276 L497,266 L499,256 L499,245 L496,232 L490,222 L482,215 L472,210 L462,208 L452,207 ZM583,268 L581,275 L577,290 L568,309 L560,320 L551,330 L542,338 L528,346 L513,352 L509,354 L511,359 L520,370 L533,387 L547,405 L559,421 L569,434 L579,447 L582,451 L584,451 L584,268 Z"/><path d="M1113,131 L1185,131 L1198,151 L1213,175 L1228,199 L1243,223 L1255,242 L1267,261 L1279,280 L1293,302 L1309,328 L1316,338 L1318,339 L1315,209 L1314,150 L1314,131 L1397,131 L1397,470 L1322,470 L1307,446 L1293,424 L1277,399 L1267,383 L1256,366 L1244,347 L1230,325 L1218,306 L1206,287 L1194,268 L1192,267 L1195,425 L1195,470 L1113,470 Z"/></svg>